<svg width="24" height="24" viewBox="0 0 24 24" fill="none" xmlns="http://www.w3.org/2000/svg">
<path fill-rule="evenodd" clip-rule="evenodd" d="M9.5 2C8.67157 2 8 2.67157 8 3.5H7C6.93279 3.5 6.8661 3.50221 6.8 3.50656C6.76425 3.50891 6.72867 3.51189 6.69327 3.51549C5.1805 3.66912 4 4.9467 4 6.5V19C4 20.6569 5.34315 22 7 22H17C18.6569 22 20 20.6569 20 19V6.5C20 4.91035 18.7636 3.60948 17.2 3.50656L17.1927 3.50609C17.129 3.50205 17.0647 3.5 17 3.5H16C16 2.67157 15.3284 2 14.5 2H9.5ZM14.5 3.2H9.5C9.33431 3.2 9.2 3.33431 9.2 3.5V4.5C9.2 4.66569 9.33431 4.8 9.5 4.8H14.5C14.6657 4.8 14.8 4.66569 14.8 4.5V3.5C14.8 3.33431 14.6657 3.2 14.5 3.2ZM15.9242 10.1757C16.1585 10.4101 16.1585 10.7899 15.9242 11.0243L11.5497 15.3987C11.3155 15.633 10.9356 15.633 10.7013 15.3988L8.07571 12.7741C7.84136 12.5398 7.84129 12.1599 8.07556 11.9256C8.30984 11.6912 8.68974 11.6912 8.92409 11.9254L11.1254 14.126L15.0756 10.1757C15.31 9.94142 15.6899 9.94142 15.9242 10.1757Z" fill="white"/>
</svg>
