<svg width="24" height="24" viewBox="0 0 24 24" fill="none" xmlns="http://www.w3.org/2000/svg">
<path fill-rule="evenodd" clip-rule="evenodd" d="M21 4.60012C21 4.26875 20.7314 4.00012 20.4 4.00012H3.6C3.26863 4.00012 3 4.26875 3 4.60012C3 4.93149 3.26863 5.20012 3.6 5.20012H20.4C20.7314 5.20012 21 4.93149 21 4.60012Z" fill="white"/>
<path fill-rule="evenodd" clip-rule="evenodd" d="M21 19.3999C21 19.0686 20.7314 18.7999 20.4 18.7999H3.6C3.26863 18.7999 3 19.0686 3 19.3999C3 19.7313 3.26863 19.9999 3.6 19.9999H20.4C20.7314 19.9999 21 19.7313 21 19.3999Z" fill="white"/>
<path fill-rule="evenodd" clip-rule="evenodd" d="M21 12C21 11.6687 20.7314 11.4 20.4 11.4H7.6C7.26863 11.4 7 11.6687 7 12C7 12.3314 7.26863 12.6 7.6 12.6H20.4C20.7314 12.6 21 12.3314 21 12Z" fill="white"/>
<path fill-rule="evenodd" clip-rule="evenodd" d="M8.15274 12.5128C7.87592 12.2363 7.87592 11.788 8.15274 11.5115L10.8616 8.80583C11.0461 8.6215 11.0461 8.32264 10.8616 8.13831C10.677 7.95398 10.3778 7.95398 10.1933 8.13831L7.48444 10.844C6.83852 11.4891 6.83852 12.5351 7.48444 13.1803L10.1933 15.8859C10.3778 16.0703 10.677 16.0703 10.8616 15.8859C11.0461 15.7016 11.0461 15.4027 10.8616 15.2184L8.15274 12.5128Z" fill="white"/>
</svg>
