<svg width="24" height="24" viewBox="0 0 24 24" fill="none" xmlns="http://www.w3.org/2000/svg">
<path fill-rule="evenodd" clip-rule="evenodd" d="M5 5C5 3.34315 6.34315 2 8 2H18C19.6569 2 21 3.34315 21 5V19C21 20.6569 19.6569 22 18 22H8C6.34315 22 5 20.6569 5 19V16.9998H3.6C3.26863 16.9998 3 16.7312 3 16.3998C3 16.0684 3.26863 15.7998 3.6 15.7998H5V8.2H3.6C3.26863 8.2 3 7.93137 3 7.6C3 7.26863 3.26863 7 3.6 7H5V5ZM15 9.5C15 10.6046 14.1046 11.5 13 11.5C11.8954 11.5 11 10.6046 11 9.5C11 8.39543 11.8954 7.5 13 7.5C14.1046 7.5 15 8.39543 15 9.5ZM13.8 9.5C13.8 9.94183 13.4418 10.3 13 10.3C12.5582 10.3 12.2 9.94183 12.2 9.5C12.2 9.05817 12.5582 8.7 13 8.7C13.4418 8.7 13.8 9.05817 13.8 9.5ZM9 15.6C9 13.6118 10.6118 12 12.6 12H13.4C15.3882 12 17 13.6118 17 15.6V15.7C17 16.0314 16.7314 16.3 16.4 16.3C16.0686 16.3 15.8 16.0314 15.8 15.7V15.6C15.8 14.2745 14.7255 13.2 13.4 13.2H12.6C11.2745 13.2 10.2 14.2745 10.2 15.6V15.7C10.2 16.0314 9.93137 16.3 9.6 16.3C9.26863 16.3 9 16.0314 9 15.7V15.6Z" fill="white"/>
</svg>
