<svg width="24" height="24" viewBox="0 0 24 24" fill="none" xmlns="http://www.w3.org/2000/svg">
<path fill-rule="evenodd" clip-rule="evenodd" d="M9.71595 3.1362C9.88289 2.46845 10.4829 2 11.1712 2H12.8288C13.5171 2 14.1171 2.46845 14.284 3.1362L14.4916 3.96653C14.5647 4.25874 14.7831 4.49131 15.0614 4.60665C15.3396 4.72201 15.6563 4.71098 15.9146 4.55599L16.647 4.11654C17.2372 3.76241 17.9927 3.85542 18.4794 4.34212L19.6516 5.51427C20.1383 6.00098 20.2313 6.75646 19.8771 7.34668L19.4416 8.07266C19.2853 8.33308 19.2744 8.65235 19.3909 8.93281C19.5072 9.21273 19.7413 9.43252 20.0354 9.50603L20.8545 9.71082C21.5223 9.87776 21.9907 10.4777 21.9907 11.166V12.8237C21.9907 13.512 21.5223 14.112 20.8545 14.2789L20.0436 14.4817C19.7469 14.5558 19.5108 14.7779 19.3937 15.0604C19.2767 15.3429 19.2877 15.6644 19.445 15.9266L19.8742 16.6419C20.2283 17.2321 20.1353 17.9876 19.6486 18.4743L18.4764 19.6464C17.9897 20.1331 17.2343 20.2261 16.644 19.872L15.9314 19.4445C15.6682 19.2865 15.3455 19.2755 15.0619 19.3931C14.7785 19.5106 14.5557 19.7475 14.4813 20.0452L14.2801 20.8496C14.1132 21.5174 13.5132 21.9858 12.8249 21.9858H11.1673C10.479 21.9858 9.87898 21.5174 9.71204 20.8496L9.50982 20.0407C9.43561 19.7439 9.21368 19.5077 8.93116 19.3902C8.64796 19.2725 8.32552 19.2834 8.06252 19.4411L7.34908 19.8692C6.75887 20.2233 6.00338 20.1303 5.51668 19.6436L4.34453 18.4715C3.85783 17.9848 3.76482 17.2293 4.11895 16.6391L4.55277 15.916C4.70911 15.6555 4.72027 15.3361 4.60414 15.0553C4.4878 14.774 4.2529 14.553 3.95758 14.4791L3.14108 14.275C2.47333 14.1081 2.00488 13.5081 2.00488 12.8198V11.1621C2.00488 10.4738 2.47333 9.87386 3.14108 9.70692L3.96942 9.49983C4.26172 9.42676 4.49446 9.20841 4.61015 8.93022C4.72616 8.65126 4.71531 8.33363 4.55988 8.07457L4.12151 7.34396C3.76738 6.75374 3.86039 5.99826 4.34709 5.51155L5.51924 4.3394C6.00594 3.8527 6.76143 3.7597 7.35164 4.11382L8.08805 4.55567C8.34581 4.71033 8.66178 4.72138 8.93948 4.60631C9.21721 4.49121 9.43523 4.25907 9.50815 3.96741L9.71595 3.1362ZM12 16C14.2091 16 16 14.2091 16 12C16 9.79086 14.2091 8 12 8C9.79086 8 8 9.79086 8 12C8 14.2091 9.79086 16 12 16ZM12 14.8C13.5464 14.8 14.8 13.5464 14.8 12C14.8 10.4536 13.5464 9.2 12 9.2C10.4536 9.2 9.2 10.4536 9.2 12C9.2 13.5464 10.4536 14.8 12 14.8Z" fill="white"/>
</svg>
