<svg width="24" height="24" viewBox="0 0 24 24" fill="none" xmlns="http://www.w3.org/2000/svg">
<path fill-rule="evenodd" clip-rule="evenodd" d="M22 12.5C22 12.78 21.7681 13 21.4881 13H12C11.4477 13 11 12.5523 11 12V2.51188C11 2.23192 11.22 2 11.5 2C17.299 2 22 6.70101 22 12.5ZM8.85734 3.37241C9.44794 3.20172 10 3.67411 10 4.28888V13C10 13.5523 10.4477 14 11 14H19.7111C20.3259 14 20.7983 14.5521 20.6276 15.1427C19.4828 19.1036 15.8297 22 11.5 22C6.25329 22 2 17.7467 2 12.5C2 8.17034 4.89642 4.51717 8.85734 3.37241Z" fill="white"/>
</svg>
