<svg width="24" height="24" viewBox="0 0 24 24" fill="none" xmlns="http://www.w3.org/2000/svg">
<path fill-rule="evenodd" clip-rule="evenodd" d="M12 2C9.79086 2 8 3.79086 8 6H7C5.34315 6 4 7.34315 4 9V19C4 20.6569 5.34315 22 7 22H17C18.6569 22 20 20.6569 20 19V9C20 7.34315 18.6569 6 17 6H16.0008V8.4C16.0008 8.73137 15.7322 9 15.4008 9C15.0694 9 14.8008 8.73137 14.8008 8.4V6L16 6C16 3.79086 14.2091 2 12 2ZM9.2 6H8V8.4C8 8.73137 8.26863 9 8.6 9C8.93137 9 9.2 8.73137 9.2 8.4V6ZM9.2 6C9.2 4.4536 10.4536 3.2 12 3.2C13.5464 3.2 14.8 4.4536 14.8 6L9.2 6Z" fill="white"/>
</svg>
