<svg width="24" height="24" viewBox="0 0 24 24" fill="none" xmlns="http://www.w3.org/2000/svg">
<path fill-rule="evenodd" clip-rule="evenodd" d="M10.6098 2.27843C11.4995 1.90735 12.5005 1.90735 13.3902 2.27843L20.6098 5.28962C22.4634 6.06272 22.4634 8.69122 20.6098 9.46431L13.3902 12.4755C12.5005 12.8466 11.4995 12.8466 10.6098 12.4755L3.39018 9.46431C1.53661 8.69122 1.53661 6.06272 3.39018 5.28962L10.6098 2.27843ZM2.76136 10.2769C1.56792 11.3146 1.77753 13.3916 3.39018 14.0642L10.6098 17.0754C11.4995 17.4465 12.5005 17.4465 13.3902 17.0754L20.6098 14.0642C22.2225 13.3916 22.4321 11.3146 21.2386 10.2769C21.0603 10.4319 20.8507 10.5637 20.6098 10.6642L13.3902 13.6754C12.5005 14.0465 11.4995 14.0465 10.6098 13.6754L3.39018 10.6642C3.14926 10.5637 2.93965 10.4319 2.76136 10.2769ZM3.39018 18.7874C1.77753 18.1147 1.56792 16.0377 2.76136 15C2.93965 15.155 3.14926 15.2869 3.39018 15.3873L10.6098 18.3985C11.4995 18.7696 12.5005 18.7696 13.3902 18.3985L20.6098 15.3873C20.8507 15.2869 21.0603 15.155 21.2386 15C22.4321 16.0377 22.2225 18.1147 20.6098 18.7874L13.3902 21.7985C12.5005 22.1696 11.4995 22.1696 10.6098 21.7985L3.39018 18.7874Z" fill="white"/>
</svg>
