<svg width="24" height="24" viewBox="0 0 24 24" fill="none" xmlns="http://www.w3.org/2000/svg">
<mask id="mask0_936_1061" style="mask-type:alpha" maskUnits="userSpaceOnUse" x="1" y="1" width="22" height="22">
<path d="M22.5 12C22.5 17.799 17.799 22.5 12 22.5C6.20101 22.5 1.5 17.799 1.5 12C1.5 6.20101 6.20101 1.5 12 1.5C17.799 1.5 22.5 6.20101 22.5 12Z" fill="#26B9D1" stroke="#26B9D1"/>
</mask>
<g mask="url(#mask0_936_1061)">
<rect width="22.4" height="22.4" transform="translate(0.799805 0.800049)" fill="#2C3238"/>
<path fill-rule="evenodd" clip-rule="evenodd" d="M15.1998 8.8001C15.1998 7.03279 13.7671 5.6001 11.9998 5.6001C10.2325 5.6001 8.7998 7.03279 8.7998 8.8001C8.7998 10.5674 10.2325 12.0001 11.9998 12.0001C13.7671 12.0001 15.1998 10.5674 15.1998 8.8001ZM19.1966 17.8212C19.11 15.4746 17.2642 13.6001 14.9998 13.6001H8.9998L8.83489 13.6034C6.59173 13.694 4.7998 15.625 4.7998 17.9937V26.4001H19.1998V17.9937L19.1966 17.8212Z" fill="white"/>
<path d="M22.5 12C22.5 17.799 17.799 22.5 12 22.5C6.20101 22.5 1.5 17.799 1.5 12C1.5 6.20101 6.20101 1.5 12 1.5C17.799 1.5 22.5 6.20101 22.5 12Z" stroke="#2C3238"/>
</g>
</svg>
