<svg width="24" height="24" viewBox="0 0 24 24" fill="none" xmlns="http://www.w3.org/2000/svg">
<path fill-rule="evenodd" clip-rule="evenodd" d="M12.597 7.9406C13.9678 7.66379 15 6.45243 15 5C15 3.34315 13.6569 2 12 2C10.3431 2 9 3.34315 9 5C9 6.45236 10.0321 7.66368 11.4028 7.94056C11.4009 7.96008 11.3999 7.97988 11.3999 7.9999V11.3999H7.9999C6.01168 11.3999 4.3999 13.0117 4.3999 14.9999V15.9999C4.3999 16.02 4.40089 16.0399 4.40282 16.0594C3.03207 16.3363 2 17.5476 2 19C2 20.6569 3.34315 22 5 22C6.65685 22 8 20.6569 8 19C8 17.5476 6.96783 16.3362 5.59699 16.0594C5.59891 16.0398 5.5999 16.02 5.5999 15.9999V14.9999C5.5999 13.6744 6.67442 12.5999 7.9999 12.5999H15.9999C17.3254 12.5999 18.3999 13.6744 18.3999 14.9999V15.9999C18.3999 16.02 18.4009 16.0399 18.4028 16.0594C17.0321 16.3363 16 17.5476 16 19C16 20.6569 17.3431 22 19 22C20.6569 22 22 20.6569 22 19C22 17.5476 20.9678 16.3362 19.597 16.0594C19.5989 16.0398 19.5999 16.02 19.5999 15.9999V14.9999C19.5999 13.0117 17.9881 11.3999 15.9999 11.3999H12.5999L12.5999 7.9999C12.5999 7.97989 12.5989 7.96011 12.597 7.9406Z" fill="white"/>
</svg>
