<svg width="24" height="24" viewBox="0 0 24 24" fill="none" xmlns="http://www.w3.org/2000/svg">
<path fill-rule="evenodd" clip-rule="evenodd" d="M3 4.60012C3 4.26875 3.26863 4.00012 3.6 4.00012H20.4C20.7314 4.00012 21 4.26875 21 4.60012C21 4.93149 20.7314 5.20012 20.4 5.20012H3.6C3.26863 5.20012 3 4.93149 3 4.60012Z" fill="white"/>
<path fill-rule="evenodd" clip-rule="evenodd" d="M3 19.3999C3 19.0686 3.26863 18.7999 3.6 18.7999H20.4C20.7314 18.7999 21 19.0686 21 19.3999C21 19.7313 20.7314 19.9999 20.4 19.9999H3.6C3.26863 19.9999 3 19.7313 3 19.3999Z" fill="white"/>
<path fill-rule="evenodd" clip-rule="evenodd" d="M3 12C3 11.6687 3.26863 11.4 3.6 11.4H16.4C16.7314 11.4 17 11.6687 17 12C17 12.3314 16.7314 12.6 16.4 12.6H3.6C3.26863 12.6 3 12.3314 3 12Z" fill="white"/>
<path fill-rule="evenodd" clip-rule="evenodd" d="M15.8473 12.5128C16.1241 12.2363 16.1241 11.788 15.8473 11.5115L13.1384 8.80583C12.9539 8.6215 12.9539 8.32264 13.1384 8.13831C13.323 7.95398 13.6222 7.95398 13.8067 8.13831L16.5156 10.844C17.1615 11.4891 17.1615 12.5351 16.5156 13.1803L13.8067 15.8859C13.6222 16.0703 13.323 16.0703 13.1384 15.8859C12.9539 15.7016 12.9539 15.4027 13.1384 15.2184L15.8473 12.5128Z" fill="white"/>
</svg>
